<svg width="1079" height="615" viewBox="0 0 1079 615" fill="none" xmlns="http://www.w3.org/2000/svg">
<path d="M2.68729e-05 30C2.68729e-05 13.4315 13.4315 4.7164e-05 30 4.7164e-05H1048.99C1065.55 4.7164e-05 1078.99 13.4315 1078.99 30V614.781H2.68729e-05V30Z" fill="white"/>
<path d="M806.181 506.036V564.551C806.181 570.093 801.691 574.583 796.149 574.583H283.835C278.302 574.583 273.813 570.093 273.813 564.551V506.036C273.813 500.503 278.302 496.014 283.835 496.014H796.149C801.691 496.014 806.181 500.503 806.181 506.036Z" fill="#0F1811"/>
<path d="M775.731 548.846C775.731 557.564 775.079 566.152 773.803 574.573H306.19C304.914 566.152 304.262 557.564 304.262 548.846C304.262 531.334 306.907 514.344 311.881 498.155C312.105 497.438 312.328 496.721 312.561 496.004C331.218 437.862 379.952 390.255 443.674 365.99C444.81 365.562 445.956 365.133 447.111 364.714C475.613 354.319 507.013 348.563 539.996 348.563C542.958 348.563 545.911 348.609 548.845 348.702C549.842 348.73 550.829 348.767 551.826 348.814C578.307 349.923 603.634 354.747 627.116 362.684C627.936 362.963 628.746 363.242 629.556 363.522C657.398 373.246 682.575 387.367 703.868 404.86C704.409 405.307 704.949 405.754 705.489 406.201C734.644 430.634 756.347 461.456 767.422 496.004C767.664 496.721 767.888 497.438 768.111 498.155C773.085 514.344 775.731 531.334 775.731 548.846Z" fill="#0F1811"/>
<path d="M548.841 348.702L522.238 404.357L520.217 408.586L510.139 429.684L502.221 446.245L478.441 496.004L440.894 574.573H343.984L381.541 496.004L443.67 365.99C444.806 365.562 445.952 365.133 447.107 364.714C475.609 354.319 507.009 348.563 539.992 348.563C542.954 348.563 545.907 348.609 548.841 348.702Z" fill="#35D047"/>
<path d="M703.861 404.862L660.296 496.006L622.749 574.575H525.84L563.396 496.006L589.132 442.158L600.534 418.294L627.108 362.686C627.928 362.965 628.738 363.244 629.549 363.524C657.39 373.248 682.567 387.369 703.861 404.862Z" fill="#35D047"/>
<path d="M575.847 376.254C598.772 376.254 617.355 394.838 617.355 417.764C617.355 440.689 598.772 459.273 575.847 459.273C560.199 459.273 546.578 450.61 539.51 437.822C532.441 450.61 518.822 459.273 503.174 459.273C480.248 459.273 461.664 440.689 461.664 417.764C461.664 394.838 480.248 376.254 503.174 376.254C518.821 376.254 532.441 384.917 539.51 397.704C546.578 384.917 560.199 376.254 575.847 376.254Z" fill="white" stroke="#0F1811" stroke-width="5" stroke-linecap="round" stroke-linejoin="round"/>
<path d="M796.149 496.017H767.422C756.347 461.469 734.644 430.647 705.489 406.215C704.949 405.768 704.409 405.321 703.869 404.874C682.575 387.381 657.398 373.26 629.557 363.536C628.746 363.256 627.936 362.977 627.116 362.697C603.634 354.761 578.307 349.936 551.826 348.828C550.829 348.781 549.842 348.744 548.846 348.716C545.911 348.623 542.959 348.576 539.997 348.576C507.014 348.576 475.614 354.333 447.111 364.728C445.956 365.147 444.81 365.575 443.674 366.004C379.953 390.268 331.219 437.876 312.561 496.017H283.835C278.302 496.017 273.813 500.507 273.813 506.04V564.554C273.813 570.097 278.302 574.586 283.835 574.586H796.149C801.691 574.586 806.181 570.097 806.181 564.554V506.04C806.181 500.507 801.691 496.017 796.149 496.017Z" stroke="#0F1811" stroke-width="5" stroke-linecap="round" stroke-linejoin="round"/>
<path d="M550.371 415.829L550.493 415.689C561.605 402.937 579.629 402.937 590.741 415.689" stroke="#0F1811" stroke-width="5" stroke-linecap="round" stroke-linejoin="round"/>
<path d="M489.242 415.829L489.363 415.689C500.476 402.937 518.5 402.937 529.612 415.689" stroke="#0F1811" stroke-width="5" stroke-linecap="round" stroke-linejoin="round"/>
<path d="M501.95 65.3347H493.73C493.751 66.7953 494.129 68.2042 494.865 69.5612C495.6 70.9079 496.678 72.1147 498.097 73.1817C499.526 74.2384 501.246 75.0515 503.256 75.6213L500.956 79.3817C498.729 78.7601 496.802 77.8071 495.176 76.5225C493.549 75.238 492.275 73.71 491.353 71.9386C490.452 73.9483 489.152 75.6783 487.453 77.1285C485.764 78.5788 483.729 79.6458 481.346 80.3295L478.953 76.507C481.025 75.9062 482.796 75.0308 484.267 73.881C485.738 72.7311 486.852 71.4207 487.608 69.9497C488.375 68.4683 488.768 66.93 488.789 65.3347H480.398V61.4811H501.95V65.3347ZM484.889 81.4949H510.885V91.6572H489.768V95.0291H512.128V98.7895H484.951V88.1921H506.006V85.2397H484.889V81.4949ZM505.975 59.4766H510.885V67.5878H516.432V71.5502H510.885V79.8789H505.975V59.4766Z" fill="#0F1811"/>
<path d="M549.283 79.3661H530.466V62.1026H549.283V79.3661ZM532.797 95.2777C535.076 94.9669 537.085 94.4438 538.826 93.7083C540.576 92.9728 541.98 92.0923 543.037 91.0667C544.093 90.0412 544.756 88.9431 545.026 87.7725H534.444V83.8879H561.015V87.7725H550.464C550.733 88.912 551.396 89.9997 552.453 91.0357C553.52 92.0612 554.929 92.9521 556.68 93.7083C558.43 94.4645 560.43 94.998 562.677 95.3088L560.906 99.0692C557.85 98.6341 555.177 97.7898 552.888 96.5363C550.609 95.2829 548.884 93.7446 547.714 91.9214C546.564 93.7342 544.855 95.257 542.586 96.4897C540.317 97.7328 537.65 98.5616 534.584 98.9759L532.797 95.2777ZM544.482 75.4659V66.0029H535.283V75.4659H544.482ZM555.545 59.4766H560.455V68.3958H566.003V72.4359H560.455V81.8678H555.545V59.4766Z" fill="#0F1811"/>
<path d="M604.195 87.3219H588.486V99.2245H583.637V87.3219H568.006V83.3129H604.195V87.3219ZM569.979 77.0353C572.538 76.7245 574.817 76.1134 576.816 75.2017C578.826 74.2901 580.416 73.2076 581.586 71.9542C582.767 70.6904 583.441 69.3903 583.606 68.054H571.362V64.1693H583.637V59.4921H588.486V64.1693H600.823V68.054H588.563C588.729 69.3799 589.392 70.6748 590.552 71.9386C591.723 73.1921 593.308 74.2798 595.307 75.2017C597.306 76.1134 599.58 76.7245 602.128 77.0353L600.357 80.8889C598.202 80.6196 596.203 80.1379 594.359 79.4438C592.515 78.7394 590.894 77.8692 589.496 76.8333C588.097 75.7974 586.963 74.6372 586.093 73.3526C585.233 74.6475 584.098 75.8129 582.69 76.8488C581.291 77.8848 579.66 78.7497 577.795 79.4438C575.941 80.1379 573.926 80.6196 571.75 80.8889L569.979 77.0353Z" fill="#0F1811"/>
<path d="M640.165 82.4738H635.286V75.2173H628.263V71.3171H635.286V67.6655H628.263V63.7342H635.286V59.4766H640.165V82.4738ZM606.726 78.4804C608.808 77.7242 610.575 76.6468 612.025 75.2484C613.475 73.8499 614.563 72.2546 615.288 70.4625C616.024 68.66 616.396 66.7642 616.407 64.7753V60.9217H621.317V64.7753C621.307 66.6296 621.649 68.4217 622.343 70.1517C623.047 71.8817 624.098 73.4303 625.497 74.7977C626.895 76.1548 628.589 77.1959 630.578 77.921L627.781 81.7746C625.72 80.977 623.938 79.8219 622.436 78.3095C620.934 76.7971 619.748 75.0205 618.877 72.9797C617.997 75.1551 616.759 77.0509 615.164 78.6669C613.579 80.2725 611.678 81.5001 609.461 82.3495L606.726 78.4804ZM609.041 95.0291C610.699 94.4593 612.097 93.6617 613.237 92.6361C614.387 91.6002 615.247 90.4452 615.816 89.171C616.386 87.8865 616.676 86.5709 616.687 85.2242V83.8879H621.426V85.2242C621.405 86.9852 621.804 88.6686 622.622 90.2743C623.451 91.8696 624.694 93.2059 626.352 94.2832C627.46 93.5167 628.387 92.6258 629.133 91.6106C629.879 90.585 630.433 89.5232 630.796 88.4252C631.158 87.3271 631.345 86.2601 631.355 85.2242V83.8879H636.156V85.2242C636.156 86.6434 636.436 87.9953 636.996 89.2798C637.565 90.5643 638.43 91.709 639.591 92.7138C640.751 93.7187 642.191 94.4904 643.91 95.0291L641.409 98.6496C639.544 97.9866 637.964 97.0491 636.669 95.8371C635.374 94.6251 634.375 93.1955 633.67 91.5484C632.976 93.2163 632.018 94.6924 630.796 95.977C629.584 97.2718 628.107 98.2715 626.367 98.9759C624.585 98.3129 623.083 97.3495 621.861 96.0857C620.639 94.8219 619.691 93.3509 619.017 91.6727C618.282 93.2577 617.277 94.651 616.003 95.8526C614.729 97.0543 613.201 97.9866 611.419 98.6496L609.041 95.0291Z" fill="#0F1811"/>
<path d="M656.635 62.3513C658.416 62.3513 660.027 62.8278 661.467 63.7808C662.907 64.7339 664.078 66.0961 664.979 67.8675C665.891 69.6285 666.46 71.7004 666.688 74.083H674.24V59.4766H679.088V99.2556H674.24V78.0298H666.735C666.569 80.5574 666.036 82.7587 665.134 84.6337C664.233 86.4984 663.047 87.9331 661.576 88.9379C660.115 89.9428 658.468 90.4452 656.635 90.4452C654.656 90.4452 652.89 89.8754 651.336 88.7359C649.793 87.5861 648.591 85.9493 647.731 83.8257C646.871 81.6917 646.447 79.2107 646.457 76.3827C646.447 73.5754 646.871 71.1151 647.731 69.0018C648.591 66.8782 649.793 65.2415 651.336 64.0916C652.89 62.9314 654.656 62.3513 656.635 62.3513ZM651.134 76.3827C651.134 78.382 651.362 80.1068 651.818 81.5571C652.274 83.0073 652.916 84.1158 653.745 84.8823C654.584 85.6489 655.547 86.0322 656.635 86.0322C657.733 86.0322 658.696 85.6541 659.525 84.8979C660.364 84.1313 661.011 83.0229 661.467 81.5726C661.933 80.112 662.167 78.382 662.167 76.3827C662.167 74.3937 661.933 72.6793 661.467 71.2394C661.011 69.7891 660.364 68.6807 659.525 67.9141C658.696 67.1475 657.733 66.7642 656.635 66.7642C655.547 66.7642 654.584 67.1475 653.745 67.9141C652.916 68.6807 652.274 69.7891 651.818 71.2394C651.362 72.6793 651.134 74.3937 651.134 76.3827Z" fill="#0F1811"/>
<path d="M720.994 94.3609H684.68V90.352H693.071V80.2984C691.455 79.3765 690.202 78.2163 689.311 76.8178C688.43 75.4089 687.995 73.8395 688.006 72.1096C688.006 70.0377 688.632 68.2093 689.886 66.6244C691.15 65.0291 692.9 63.7912 695.138 62.9107C697.375 62.0301 699.913 61.5899 702.752 61.5899C705.59 61.5899 708.133 62.0301 710.381 62.9107C712.629 63.7912 714.385 65.0291 715.649 66.6244C716.923 68.2093 717.56 70.0377 717.56 72.1096C717.56 73.8084 717.13 75.352 716.27 76.7401C715.411 78.1178 714.193 79.2729 712.619 80.2052V90.352H720.994V94.3609ZM692.792 72.1096C692.792 73.4459 693.206 74.6216 694.035 75.6368C694.863 76.6417 696.029 77.4186 697.531 77.9676C699.043 78.5063 700.784 78.7756 702.752 78.7756C704.71 78.7756 706.445 78.5011 707.957 77.9521C709.47 77.4031 710.645 76.6261 711.485 75.6213C712.334 74.6165 712.759 73.4459 712.759 72.1096C712.759 70.7525 712.339 69.5767 711.5 68.5823C710.661 67.5774 709.485 66.8109 707.973 66.2825C706.46 65.7542 704.72 65.4901 702.752 65.4901C700.773 65.4901 699.033 65.7542 697.531 66.2825C696.029 66.8109 694.863 67.5774 694.035 68.5823C693.206 69.5767 692.792 70.7525 692.792 72.1096ZM707.678 90.352V82.0854C706.134 82.4169 704.492 82.5826 702.752 82.5826C701.053 82.5826 699.437 82.4169 697.904 82.0854V90.352H707.678Z" fill="#0F1811"/>
<circle cx="405.721" cy="77.0957" r="43.748" fill="#35D047"/>
<path d="M384.715 80.2358L398.087 93.6079L427.203 64.4922" stroke="white" stroke-width="10" stroke-linecap="round" stroke-linejoin="round"/>
<path d="M245.931 192.657V196.524H234.154V205.621H249.974V209.62H213.675V205.621H229.32V196.524H218.07V177.54H245.624V181.451H222.948V192.657H245.931Z" fill="#0F1811"/>
<path d="M288.866 205.665V209.708H252.567V205.665H268.211V199.205H256.874V186.197H279.725V181.275H256.786V177.32H284.559V190.065H261.751V195.206H285.482V199.205H273.045V205.665H288.866Z" fill="#0F1811"/>
<path d="M327.713 194.239V198.15H312.376V205.445H307.411V198.15H291.415V194.239H327.713ZM323.714 209.532V213.531H295.853V201.754H300.775V209.532H323.714ZM309.52 175.475C318.089 175.475 323.758 178.595 323.758 183.605C323.758 188.614 318.089 191.69 309.52 191.69C300.951 191.69 295.282 188.614 295.282 183.605C295.282 178.595 300.951 175.475 309.52 175.475ZM309.52 179.342C304.071 179.342 300.511 180.88 300.555 183.605C300.511 186.241 304.071 187.779 309.52 187.779C315.013 187.779 318.529 186.241 318.529 183.605C318.529 180.88 315.013 179.342 309.52 179.342Z" fill="#0F1811"/>
<path d="M350.829 188.614V193.8H366.561V197.711H330.35V193.8H345.995V188.614H350.829ZM350.873 176.749C350.873 181.583 356.19 185.978 364.496 187.032L362.606 190.856C356.08 189.845 350.895 186.9 348.368 182.726C345.819 186.9 340.633 189.845 334.085 190.856L332.328 187.032C340.501 185.978 345.907 181.495 345.907 176.749V175.255H350.873V176.749ZM348.412 200.304C357.025 200.304 362.123 202.809 362.167 207.291C362.123 211.773 357.025 214.278 348.412 214.278C339.754 214.278 334.569 211.773 334.569 207.291C334.569 202.809 339.754 200.304 348.412 200.304ZM348.412 204.039C342.567 204.039 339.491 205.094 339.535 207.291C339.491 209.488 342.567 210.587 348.412 210.587C354.125 210.587 357.245 209.488 357.289 207.291C357.245 205.094 354.125 204.039 348.412 204.039Z" fill="#0F1811"/>
<path d="M405.453 195.118V199.029H369.242V195.118H405.453ZM401.366 209.576V213.531H373.724V201.974H378.602V209.576H401.366ZM387.303 175.87C395.96 175.87 401.585 178.902 401.629 183.912C401.585 188.966 395.96 192.042 387.303 192.042C378.646 192.042 372.977 188.966 372.977 183.912C372.977 178.902 378.646 175.87 387.303 175.87ZM387.303 179.781C381.546 179.781 378.031 181.275 378.075 183.912C378.031 186.593 381.546 188.087 387.303 188.043C393.104 188.087 396.576 186.593 396.576 183.912C396.576 181.275 393.104 179.781 387.303 179.781Z" fill="#0F1811"/>
<path d="M433.797 185.89C433.797 192.394 437.621 199.249 444.037 201.93L441.356 205.797C436.654 203.775 433.226 199.601 431.424 194.547C429.579 199.996 426.107 204.566 421.449 206.764L418.636 202.94C424.92 200.04 428.832 192.657 428.832 185.89V182.55H420.086V178.507H442.499V182.55H433.797V185.89ZM451.859 174.596V214.322H446.937V174.596H451.859Z" fill="#0F1811"/>
<path d="M471.766 180.924C471.766 185.934 475.018 190.636 481.126 192.569L478.49 196.393C474.205 194.942 471.129 192.042 469.437 188.351C467.679 192.569 464.471 195.887 459.901 197.491L457.264 193.668C463.68 191.427 466.844 186.153 466.888 180.484V176.705H471.766V180.924ZM489.037 174.596V184.264H494.574V188.307H489.037V198.37H484.159V174.596H489.037ZM476.117 199.249C484.334 199.205 489.388 202.018 489.432 206.72C489.388 211.51 484.334 214.278 476.117 214.278C467.811 214.278 462.669 211.51 462.669 206.72C462.669 202.018 467.811 199.205 476.117 199.249ZM476.117 203.072C470.668 203.072 467.547 204.391 467.547 206.72C467.547 209.181 470.668 210.411 476.117 210.411C481.566 210.411 484.598 209.181 484.598 206.72C484.598 204.391 481.566 203.072 476.117 203.072Z" fill="#0F1811"/>
<path d="M530.873 174.596V214.322H526.17V174.596H530.873ZM522.699 175.299V212.389H518.041V193.492H514.261C513.8 201.227 510.482 206.017 505.56 205.973C500.375 206.017 496.991 200.523 496.991 191.778C496.991 183.033 500.375 177.628 505.56 177.628C510.372 177.628 513.646 182.11 514.217 189.537H518.041V175.299H522.699ZM505.56 182.242C503.055 182.198 501.473 185.582 501.517 191.778C501.473 197.975 503.055 201.358 505.56 201.315C508.197 201.358 509.779 197.975 509.779 191.778C509.779 185.582 508.197 182.198 505.56 182.242Z" fill="#0F1811"/>
<path d="M550.165 184.132C550.165 191.515 553.68 198.766 560.008 201.534L557.064 205.445C552.56 203.248 549.396 199.029 547.704 193.844C545.968 199.315 542.738 203.863 538.168 206.192L535.091 202.237C541.551 199.205 545.155 191.559 545.199 184.132V177.804H550.165V184.132ZM568.797 174.596V214.366H563.963V191.383H555.614V187.428H563.963V174.596H568.797Z" fill="#0F1811"/>
<path d="M599.647 181.407C599.647 186.241 602.855 191.119 609.007 193.185L606.546 196.964C602.108 195.514 598.966 192.503 597.23 188.79C595.494 192.943 592.176 196.283 587.474 197.843L584.969 193.976C591.297 191.91 594.681 186.637 594.681 181.451V180.924H586.419V177.013H607.865V180.924H599.647V181.407ZM618.324 200.172V214.322H613.446V204.083H591.253V200.172H618.324ZM618.324 174.596V198.282H613.446V188.439H606.678V184.44H613.446V174.596H618.324Z" fill="#0F1811"/>
<path d="M658.402 174.596V214.322H653.744V194.195H649.657V212.389H645.043V175.299H649.657V190.152H653.744V174.596H658.402ZM636.297 184.747C636.297 191.822 638.67 198.326 644.559 201.358L641.703 205.094C637.923 203.072 635.44 199.579 634.056 195.25C632.694 200.194 630.211 204.171 626.278 206.5L623.29 202.765C629.178 199.425 631.551 192.481 631.551 184.747V182.857H624.476V178.946H642.801V182.857H636.297V184.747Z" fill="#0F1811"/>
<path d="M699.754 180.265V184.308H694.173V188.614H699.754V192.701H694.173V198.634H689.295V174.64H694.173V180.265H699.754ZM682.484 177.057V188.482H669.256V192.657C676.002 192.613 680.616 192.372 686.043 191.471L686.571 195.382C680.638 196.437 675.497 196.7 667.63 196.656H664.378V184.791H677.694V180.924H664.334V177.057H682.484ZM681.209 199.381C689.383 199.425 694.525 202.193 694.569 206.896C694.525 211.554 689.383 214.234 681.209 214.234C672.86 214.234 667.762 211.554 667.762 206.896C667.762 202.193 672.86 199.425 681.209 199.381ZM681.209 203.204C675.672 203.204 672.508 204.523 672.552 206.896C672.508 209.269 675.672 210.543 681.209 210.543C686.703 210.543 689.735 209.269 689.735 206.896C689.735 204.523 686.703 203.204 681.209 203.204Z" fill="#0F1811"/>
<path d="M734.779 174.596V214.366H729.857V174.596H734.779ZM713.377 177.496C719.354 177.496 723.705 182.945 723.749 191.515C723.705 200.172 719.354 205.577 713.377 205.577C707.357 205.577 703.006 200.172 703.006 191.515C703.006 182.945 707.357 177.496 713.377 177.496ZM713.377 181.891C709.994 181.891 707.709 185.45 707.709 191.515C707.709 197.623 709.994 201.183 713.377 201.183C716.717 201.183 719.002 197.623 719.002 191.515C719.002 185.45 716.717 181.891 713.377 181.891Z" fill="#0F1811"/>
<path d="M765.892 181.407C765.892 186.241 769.1 191.119 775.252 193.185L772.792 196.964C768.353 195.514 765.211 192.503 763.475 188.79C761.739 192.943 758.421 196.283 753.719 197.843L751.214 193.976C757.543 191.91 760.926 186.637 760.926 181.451V180.924H752.665V177.013H774.11V180.924H765.892V181.407ZM784.569 200.172V214.322H779.691V204.083H757.499V200.172H784.569ZM784.569 174.596V198.282H779.691V188.439H772.923V184.44H779.691V174.596H784.569Z" fill="#0F1811"/>
<path d="M801.048 177.496C806.432 177.496 810.409 181.979 811.112 189.23H818.67V174.596H823.504V214.366H818.67V193.185H811.156C810.628 200.853 806.585 205.577 801.048 205.577C795.072 205.577 790.853 200.172 790.853 191.515C790.853 182.945 795.072 177.496 801.048 177.496ZM801.048 181.891C797.752 181.891 795.511 185.45 795.555 191.515C795.511 197.623 797.752 201.183 801.048 201.183C804.344 201.183 806.542 197.623 806.585 191.515C806.542 185.45 804.344 181.891 801.048 181.891Z" fill="#0F1811"/>
<path d="M843.763 184.132C843.763 191.515 847.279 198.766 853.607 201.534L850.663 205.445C846.158 203.248 842.994 199.029 841.302 193.844C839.566 199.315 836.336 203.863 831.766 206.192L828.69 202.237C835.15 199.205 838.753 191.559 838.797 184.132V177.804H843.763V184.132ZM862.396 174.596V214.366H857.562V191.383H849.212V187.428H857.562V174.596H862.396Z" fill="#0F1811"/>
<path d="M196.822 248.924C196.822 253.934 200.074 258.636 206.183 260.569L203.546 264.393C199.261 262.942 196.185 260.042 194.493 256.351C192.735 260.569 189.527 263.887 184.957 265.491L182.32 261.668C188.736 259.427 191.9 254.153 191.944 248.484V244.705H196.822V248.924ZM214.093 242.596V252.264H219.63V256.307H214.093V266.37H209.215V242.596H214.093ZM201.173 267.249C209.391 267.205 214.444 270.018 214.488 274.72C214.444 279.51 209.391 282.278 201.173 282.278C192.867 282.278 187.726 279.51 187.726 274.72C187.726 270.018 192.867 267.205 201.173 267.249ZM201.173 271.072C195.724 271.072 192.604 272.391 192.604 274.72C192.604 277.181 195.724 278.411 201.173 278.411C206.622 278.411 209.654 277.181 209.654 274.72C209.654 272.391 206.622 271.072 201.173 271.072Z" fill="#0F1811"/>
<path d="M255.841 242.596V282.322H251.183V262.064H246.7V280.301H242.218V243.343H246.7V258.152H251.183V242.596H255.841ZM237.735 247.298V251.253H227.804V268.919C232.132 268.875 235.692 268.655 239.713 267.908L240.064 271.907C235.274 272.874 231.1 273.006 225.563 273.05H222.882V247.298H237.735Z" fill="#0F1811"/>
<path d="M275.133 249.407C275.133 254.241 278.341 259.119 284.493 261.185L282.032 264.964C277.594 263.514 274.452 260.503 272.716 256.79C270.98 260.943 267.662 264.283 262.96 265.843L260.455 261.976C266.783 259.91 270.167 254.637 270.167 249.451V248.924H261.905V245.013H283.351V248.924H275.133V249.407ZM293.81 268.172V282.322H288.932V272.083H266.739V268.172H293.81ZM293.81 242.596V266.282H288.932V256.439H282.164V252.44H288.932V242.596H293.81Z" fill="#0F1811"/>
<path d="M317.496 244.837C325.89 244.837 332.306 249.275 332.306 256.043C332.306 262.898 325.89 267.337 317.496 267.337C309.147 267.337 302.73 262.898 302.774 256.043C302.73 249.275 309.147 244.837 317.496 244.837ZM317.496 248.792C311.739 248.748 307.477 251.648 307.477 256.043C307.477 260.525 311.739 263.338 317.496 263.338C323.297 263.338 327.516 260.525 327.516 256.043C327.516 251.648 323.297 248.748 317.496 248.792ZM335.733 273.314V277.313H299.435V273.314H335.733Z" fill="#0F1811"/>
<path d="M374.625 273.665V277.708H338.326V273.665H353.971V267.205H342.633V254.197H365.484V249.275H342.545V245.32H370.318V258.065H347.511V263.206H371.241V267.205H358.805V273.665H374.625Z" fill="#0F1811"/>
<path d="M419.23 242.596V251.165H424.767V255.208H419.23V262.591H414.352V242.596H419.23ZM408.067 245.145V261.536H389.259V245.145H408.067ZM394.049 248.968V257.713H403.277V248.968H394.049ZM396.466 265.975V277.225C398.751 277.115 401.102 276.785 403.365 276.038L404.068 279.861C400.553 281.092 397.169 281.224 393.785 281.224H391.676V265.975H396.466ZM422.701 266.414V269.93H402.706V266.414H410.353V263.294H415.143V266.414H422.701ZM412.682 271.116C417.164 271.116 420.284 273.226 420.284 276.697C420.284 280.081 417.164 282.234 412.682 282.234C408.155 282.234 405.079 280.081 405.123 276.697C405.079 273.226 408.155 271.116 412.682 271.116ZM412.682 274.456C410.792 274.456 409.43 275.247 409.474 276.697C409.43 278.148 410.792 278.939 412.682 278.939C414.527 278.939 415.89 278.148 415.89 276.697C415.89 275.247 414.527 274.456 412.682 274.456Z" fill="#0F1811"/>
<path d="M462.999 263.118V267.029H426.788V263.118H462.999ZM458.912 277.576V281.531H431.271V269.974H436.148V277.576H458.912ZM444.85 243.87C453.507 243.87 459.132 246.902 459.176 251.912C459.132 256.966 453.507 260.042 444.85 260.042C436.192 260.042 430.523 256.966 430.523 251.912C430.523 246.902 436.192 243.87 444.85 243.87ZM444.85 247.781C439.093 247.781 435.577 249.275 435.621 251.912C435.577 254.593 439.093 256.087 444.85 256.043C450.65 256.087 454.122 254.593 454.122 251.912C454.122 249.275 450.65 247.781 444.85 247.781Z" fill="#0F1811"/>
<path d="M496.573 245.716V249.583H482.862V254.022H495.782V257.889H482.862V262.503C489.806 262.481 494.024 262.261 498.858 261.448L499.386 265.272C493.98 266.282 489.278 266.458 481.148 266.458H477.984V245.716H496.573ZM507.691 242.596V254.549H513.229V258.592H507.691V271.995H502.814V242.596H507.691ZM509.273 277.576V281.531H482.247V269.315H487.125V277.576H509.273Z" fill="#0F1811"/>
<path d="M551.549 273.445V277.4H515.25V273.445H530.807V264.261H535.641V273.445H551.549ZM535.772 247.913C535.772 253.934 541.793 259.866 550.143 261.185L548.033 265.228C541.31 263.953 535.816 260.108 533.18 254.9C530.543 260.086 525.094 263.997 518.414 265.228L516.305 261.185C524.61 259.866 530.543 253.89 530.587 247.913V245.013H535.772V247.913Z" fill="#0F1811"/>
<path d="M570.665 246.243V255.428H577.125V246.243H581.651V272.698H566.051V246.243H570.665ZM570.665 268.743H577.125V259.295H570.665V268.743ZM599.098 242.596V282.322H594.396V261.976H590.177V280.389H585.563V243.299H590.177V257.933H594.396V242.596H599.098Z" fill="#0F1811"/>
<path d="M639.835 259.778V263.382H624.19V266.282H635.397V275.599H612.809V278.323H636.495V281.971H608.019V272.259H630.606V269.798H607.975V266.282H619.356V263.382H603.8V259.778H639.835ZM624.19 242.508V245.848H636.363V249.495H624.718C625.663 252.308 630.277 254.417 638.209 254.813L636.759 258.46C629.64 258.021 624.278 256.087 621.773 252.879C619.269 256.087 613.929 258.021 606.744 258.46L605.382 254.813C613.226 254.417 617.84 252.308 618.873 249.495H607.272V245.848H619.356V242.508H624.19Z" fill="#0F1811"/>
<path d="M679.518 248.265V252.308H673.937V256.614H679.518V260.701H673.937V266.634H669.059V242.64H673.937V248.265H679.518ZM662.247 245.057V256.482H649.02V260.657C655.765 260.613 660.379 260.372 665.807 259.471L666.334 263.382C660.401 264.437 655.26 264.7 647.394 264.656H644.142V252.791H657.457V248.924H644.098V245.057H662.247ZM660.973 267.381C669.147 267.425 674.288 270.193 674.332 274.896C674.288 279.554 669.147 282.234 660.973 282.234C652.623 282.234 647.525 279.554 647.525 274.896C647.525 270.193 652.623 267.425 660.973 267.381ZM660.973 271.204C655.436 271.204 652.272 272.523 652.315 274.896C652.272 277.269 655.436 278.543 660.973 278.543C666.466 278.543 669.498 277.269 669.498 274.896C669.498 272.523 666.466 271.204 660.973 271.204Z" fill="#0F1811"/>
<path d="M699.557 243.211C708.609 243.211 713.839 245.628 713.883 250.023C713.839 254.461 708.609 256.834 699.557 256.878C690.504 256.834 685.23 254.461 685.23 250.023C685.23 245.628 690.504 243.211 699.557 243.211ZM699.557 246.815C693.492 246.815 690.328 247.957 690.372 250.023C690.328 252.22 693.492 253.231 699.557 253.231C705.709 253.231 708.829 252.22 708.829 250.023C708.829 247.957 705.709 246.815 699.557 246.815ZM717.706 258.987V262.898H681.495V258.987H717.706ZM713.18 265.579V275.291H690.592V278.235H714.278V281.971H685.802V271.819H708.39V269.183H685.758V265.579H713.18Z" fill="#0F1811"/>
<path d="M745.04 255.208C745.04 261.097 748.38 267.513 754.488 270.413L751.764 274.105C747.479 272.105 744.359 268.172 742.711 263.514C740.953 268.523 737.679 272.764 733.131 274.808L730.45 271.028C736.69 268.216 740.206 261.448 740.206 255.208V253.143H731.725V249.231H740.206V243.431H745.084V249.231H753.434V253.143H745.04V255.208ZM762.179 242.596V258.328H768.287V262.415H762.179V282.322H757.301V242.596H762.179Z" fill="#0F1811"/>
<path d="M784.942 253.89C784.942 260.394 788.766 267.249 795.182 269.93L792.501 273.797C787.799 271.775 784.371 267.601 782.569 262.547C780.724 267.996 777.252 272.566 772.594 274.764L769.781 270.94C776.065 268.04 779.977 260.657 779.977 253.89V250.55H771.231V246.507H793.644V250.55H784.942V253.89ZM803.004 242.596V282.322H798.082V242.596H803.004Z" fill="#0F1811"/>
<path d="M828.229 248.924V252.835H808.761V248.924H816.144V243.738H820.978V248.924H828.229ZM818.561 254.944C823.614 254.944 827.218 258.768 827.218 264.173C827.218 269.666 823.614 273.533 818.561 273.533C813.551 273.533 809.859 269.666 809.903 264.173C809.859 258.768 813.551 254.944 818.561 254.944ZM818.561 258.987C815.968 258.987 814.166 261.053 814.21 264.173C814.166 267.381 815.968 269.402 818.561 269.358C821.109 269.402 822.911 267.381 822.911 264.173C822.911 261.053 821.109 258.987 818.561 258.987ZM842.994 242.596V282.322H838.336V262.898H834.469V280.521H829.898V243.431H834.469V258.943H838.336V242.596H842.994Z" fill="#0F1811"/>
<path d="M884.039 273.489V277.488H847.74V273.489H856.134V263.426C852.97 261.624 851.058 258.79 851.08 255.252C851.036 248.924 857.276 244.749 865.802 244.749C874.371 244.749 880.611 248.924 880.611 255.252C880.611 258.724 878.766 261.514 875.689 263.338V273.489H884.039ZM865.802 248.616C859.869 248.616 855.826 251.121 855.87 255.252C855.826 259.339 859.869 261.888 865.802 261.888C871.734 261.888 875.821 259.339 875.821 255.252C875.821 251.121 871.734 248.616 865.802 248.616ZM860.968 273.489H870.724V265.184C869.208 265.535 867.56 265.711 865.802 265.711C864.088 265.711 862.462 265.535 860.968 265.228V273.489Z" fill="#0F1811"/>
<path d="M891.466 278.763C889.576 278.763 888.038 277.225 888.038 275.335C888.038 273.489 889.576 271.951 891.466 271.951C893.268 271.951 894.85 273.489 894.85 275.335C894.85 277.225 893.268 278.763 891.466 278.763Z" fill="#0F1811"/>
<path d="M1002.2 64.4639L1036.57 30.0958" stroke="#797979" stroke-width="5" stroke-linecap="round"/>
<path d="M1036.57 64.4639L1002.2 30.0958" stroke="#797979" stroke-width="5" stroke-linecap="round"/>
</svg>
