<svg width="391" height="393" viewBox="0 0 391 393" fill="none" xmlns="http://www.w3.org/2000/svg">
<g filter="url(#filter0_d_2425_10092)">
<circle cx="193.33" cy="193.33" r="184.83" fill="#81D7ED" stroke="white" stroke-width="17"/>
<path d="M293.179 204.75C293.544 204.75 293.889 204.79 294.212 204.854L294.213 204.853C296.687 205.336 298.568 207.508 298.568 210.139V284.151C298.568 287.13 296.153 289.542 293.178 289.542H180.545C179.935 289.542 179.409 289.425 178.998 289.302L178.952 289.288L178.906 289.272L178.691 289.199L178.641 289.182L178.591 289.162C176.604 288.388 175.154 286.461 175.154 284.153V210.141C175.154 207.163 177.57 204.75 180.545 204.75H293.179Z" fill="#D3951A" stroke="#0F1811" stroke-width="5.13626"/>
<path d="M293.721 207.373C294.884 207.722 295.738 208.787 295.738 210.064V284.077C295.738 285.636 294.474 286.897 292.916 286.897H180.284C180.096 286.897 179.915 286.878 179.738 286.843C179.995 286.92 180.263 286.974 180.545 286.974H293.177C294.735 286.974 295.999 285.711 295.999 284.152V210.139C295.999 208.766 295.019 207.627 293.721 207.373Z" fill="#D3951A"/>
<path d="M292.916 286.897C294.474 286.897 295.738 285.636 295.738 284.077V210.064C295.738 208.787 294.884 207.722 293.721 207.373C293.545 207.338 293.363 207.318 293.177 207.318H248.99V233.68H222.297V207.318H180.545C178.987 207.318 177.723 208.581 177.723 210.14V284.153C177.723 285.428 178.575 286.493 179.738 286.843C179.915 286.878 180.096 286.897 180.284 286.897L292.917 286.899L292.916 286.897ZM263.412 249.427C263.412 249.044 263.723 248.732 264.106 248.732H270.463L272.91 252.218L270.182 255.051L273.814 257.359L270.707 261.242L276.688 257.045L273.068 254.841L275.953 251.798L274.678 248.732H283.52C283.903 248.732 284.214 249.044 284.214 249.427V260.176C284.214 265.164 280.702 268.352 276.016 269.107V274.289C277.249 274.71 278.438 275.491 279.512 276.629C279.622 276.745 279.685 276.905 279.685 277.065V278.678C279.685 278.879 279.521 279.043 279.32 279.043H268.307C268.106 279.043 267.942 278.879 267.942 278.678V277.065C267.942 276.905 268.005 276.745 268.115 276.629C269.189 275.491 270.38 274.712 271.611 274.289V269.107C266.926 268.352 263.413 265.164 263.413 260.176L263.412 249.427Z" fill="#D3951A"/>
<path d="M248.99 207.318H222.297V233.68H248.99V207.318Z" fill="#FFC25F"/>
<path d="M271.608 269.106V262.709H276.013V269.106C280.699 268.351 284.211 265.163 284.211 260.175V249.426C284.211 249.043 283.9 248.732 283.517 248.732H274.675L275.951 251.797L273.065 254.84L276.685 257.044L270.704 261.241L273.811 257.359L270.179 255.05L272.908 252.217L270.46 248.732H264.103C263.72 248.732 263.409 249.043 263.409 249.426V260.175C263.409 265.163 266.923 268.351 271.608 269.106Z" fill="#DC4F41"/>
<path d="M271.611 269.107V274.289C272.336 274.042 273.074 273.917 273.814 273.917C274.553 273.917 275.291 274.041 276.016 274.289V269.107C275.305 269.22 274.57 269.283 273.814 269.283C273.058 269.283 272.322 269.222 271.611 269.107Z" fill="#DC4F41"/>
<path d="M271.611 262.709L271.611 269.107C272.322 269.222 273.058 269.283 273.814 269.283C274.57 269.283 275.305 269.22 276.016 269.107L276.016 262.709H271.611Z" fill="#DC4F41"/>
<path d="M271.611 275.855L271.611 274.289C270.378 274.71 269.189 275.491 268.115 276.629C268.005 276.745 267.942 276.905 267.942 277.065V278.678C267.942 278.879 268.106 279.043 268.307 279.043H279.32C279.521 279.043 279.685 278.879 279.685 278.678V277.065C279.685 276.905 279.622 276.745 279.512 276.629C278.438 275.491 277.248 274.712 276.016 274.289L276.015 275.855H271.611Z" fill="#DC4F41"/>
<path d="M271.611 274.288L271.611 275.855H276.015L276.016 274.288C275.292 274.04 274.553 273.915 273.814 273.915C273.074 273.915 272.336 274.039 271.611 274.288Z" fill="#DC4F41"/>
<path d="M183.297 177.777C183.634 177.91 183.922 178.069 184.159 178.22L184.16 178.22C186.149 179.487 187.048 182.024 186.147 184.318L146.356 285.608C145.337 288.201 142.409 289.478 139.816 288.459L88.6911 268.374L88.69 268.376L55.8527 255.476C55.3647 255.284 54.975 255.029 54.673 254.799L54.6559 254.789L54.6025 254.746C54.5823 254.73 54.5612 254.716 54.5419 254.7L54.5426 254.698C52.8917 253.366 52.1711 251.061 53.0065 248.935L92.7977 147.645C93.8165 145.052 96.7447 143.776 99.3379 144.794L183.297 177.777Z" fill="#D3951A" stroke="#0F1811" stroke-width="5.13626"/>
<path d="M87.0235 264.879L56.5786 252.919C56.4263 252.859 56.285 252.785 56.153 252.7C56.3446 252.855 56.5526 252.992 56.7933 253.086L87.2381 265.046L87.266 264.975L87.0235 264.879Z" fill="#D3951A"/>
<path d="M183.541 183.212L143.749 284.503C143.249 285.776 141.812 286.402 140.54 285.902L108.838 273.448L108.81 273.519L140.755 286.068C142.028 286.569 143.464 285.942 143.965 284.669L183.756 183.379C184.197 182.257 183.761 181.01 182.782 180.387C183.602 181.047 183.947 182.18 183.541 183.212Z" fill="#D3951A"/>
<path d="M150.413 167.618L108.838 273.448L140.54 285.902C141.812 286.402 143.249 285.776 143.749 284.503L183.541 183.212C183.947 182.18 183.602 181.047 182.782 180.387C182.649 180.303 182.509 180.227 182.358 180.168L150.413 167.618Z" fill="#D3951A"/>
<path d="M87.2687 264.973L128.843 159.145L98.3982 147.185C97.125 146.684 95.6886 147.311 95.1885 148.584L55.3968 249.874C54.9912 250.907 55.3348 252.038 56.1552 252.699C56.2884 252.784 56.4297 252.858 56.5808 252.918L87.2687 264.973Z" fill="#D3951A"/>
<path d="M108.594 273.352L87.2651 264.973L87.2372 265.043L108.81 273.519L108.838 273.448L108.594 273.352Z" fill="#FFC25F"/>
<path d="M108.594 273.352L108.838 273.448L150.413 167.618L128.84 159.143L87.2651 264.973L108.594 273.352Z" fill="#FFC25F"/>
<rect x="125.072" y="232.668" width="77.2743" height="59.6904" rx="7.70439" fill="#D3951A"/>
<rect x="155.465" y="232.669" width="16.4866" height="22.7019" fill="#FFC25F"/>
<path d="M180.406 235.661V287.957" stroke="#A57617" stroke-width="2.56813"/>
<rect x="127.64" y="235.236" width="72.1381" height="54.5542" rx="5.13626" stroke="#0F1811" stroke-width="5.13626" stroke-linejoin="round"/>
<rect x="136.398" y="277.369" width="14.5429" height="4.83728" fill="#A57617"/>
<path d="M310.78 107.537C311.524 107.537 311.913 106.654 311.412 106.104L299.437 92.9697C298.95 92.4361 298.261 92.132 297.539 92.1318H236.642C234.41 92.1319 233.241 94.7819 234.744 96.4307L244.871 107.537H310.78Z" fill="#D3951A" stroke="#0F1811" stroke-width="5.13626"/>
<path d="M205.043 97.2679C205.043 93.0128 208.492 89.5635 212.747 89.5635H282.317V149.254H212.747C208.492 149.254 205.043 145.805 205.043 141.55V97.2679Z" fill="#D3951A"/>
<path d="M212.747 92.1318H279.749V146.686H212.747C209.911 146.685 207.611 144.386 207.611 141.55V97.2676C207.611 94.4311 209.911 92.132 212.747 92.1318Z" stroke="#0F1811" stroke-width="5.13626" stroke-linejoin="round"/>
<rect x="216.371" y="134.262" width="14.5429" height="4.83728" fill="#A57617"/>
<path d="M277.322 89.5635H298.209V144.974C298.209 147.338 296.293 149.254 293.929 149.254H277.322V89.5635Z" fill="#D3951A"/>
<path d="M295.642 92.1318V144.974C295.642 145.919 294.875 146.685 293.93 146.686H279.891V92.1318H295.642Z" stroke="#0F1811" stroke-width="5.13626" stroke-linejoin="round"/>
<path d="M274.562 92.1318C275.305 92.1321 275.694 93.0149 275.193 93.5645L263.218 106.699C262.731 107.233 262.042 107.537 261.32 107.537H200.423C198.192 107.537 197.022 104.887 198.525 103.238L208.652 92.1318H274.562Z" fill="#D3951A" stroke="#0F1811" stroke-width="5.13626"/>
<path d="M219.672 150.628C219.672 150.274 219.727 149.968 219.788 149.729L219.788 149.728C220.336 147.591 222.423 146.686 224.047 146.686L303.378 146.686C304.387 146.686 305.397 146.994 306.21 147.613C307.025 148.234 307.751 149.276 307.751 150.628L307.751 150.629L307.75 179.98L307.752 179.98L307.752 200.71C307.752 201.186 307.65 201.587 307.545 201.887L307.535 201.927L307.473 202.078C307.47 202.084 307.469 202.09 307.467 202.096L307.466 202.095L307.466 202.097C306.737 203.864 304.929 204.65 303.377 204.65L224.046 204.65C223.036 204.65 222.026 204.342 221.213 203.723C220.398 203.102 219.672 202.059 219.672 200.707L219.672 150.628Z" fill="#D3951A" stroke="#0F1811" stroke-width="5.13626"/>
<path d="M305.127 182.694L305.127 200.853C305.127 200.944 305.115 201.032 305.093 201.118C305.147 200.987 305.184 200.852 305.184 200.708L305.184 182.549L305.128 182.549L305.127 182.694Z" fill="#D3951A"/>
<path d="M223.991 149.399L303.322 149.399C304.319 149.399 305.127 150.015 305.127 150.773L305.127 169.682L305.183 169.682L305.183 150.628C305.183 149.869 304.375 149.254 303.378 149.254L224.046 149.254C223.167 149.254 222.438 149.732 222.276 150.365C222.505 149.807 223.182 149.399 223.991 149.399Z" fill="#D3951A"/>
<path d="M222.24 169.682L305.127 169.682L305.127 150.773C305.127 150.015 304.319 149.399 303.322 149.399L223.991 149.399C223.182 149.399 222.505 149.807 222.276 150.365C222.254 150.45 222.24 150.538 222.24 150.628L222.24 169.682Z" fill="#D3951A"/>
<path d="M305.126 182.548L222.24 182.548L222.24 200.708C222.24 201.467 223.048 202.082 224.045 202.082L303.377 202.082C304.186 202.082 304.861 201.675 305.092 201.117C305.113 201.031 305.126 200.943 305.126 200.852L305.126 182.548Z" fill="#D3951A"/>
<path d="M305.127 169.828L305.127 182.55L305.182 182.55L305.183 169.682L305.127 169.682L305.127 169.828Z" fill="#FFC25F"/>
<path d="M305.127 169.828L305.127 169.682L222.24 169.682L222.24 182.55L305.127 182.55L305.127 169.828Z" fill="#FFC25F"/>
</g>
<defs>
<filter id="filter0_d_2425_10092" x="0" y="0" width="390.66" height="392.659" filterUnits="userSpaceOnUse" color-interpolation-filters="sRGB">
<feFlood flood-opacity="0" result="BackgroundImageFix"/>
<feColorMatrix in="SourceAlpha" type="matrix" values="0 0 0 0 0 0 0 0 0 0 0 0 0 0 0 0 0 0 127 0" result="hardAlpha"/>
<feOffset dx="2" dy="4"/>
<feGaussianBlur stdDeviation="1"/>
<feComposite in2="hardAlpha" operator="out"/>
<feColorMatrix type="matrix" values="0 0 0 0 0.313726 0 0 0 0 0.305882 0 0 0 0 0.305882 0 0 0 0.25 0"/>
<feBlend mode="normal" in2="BackgroundImageFix" result="effect1_dropShadow_2425_10092"/>
<feBlend mode="normal" in="SourceGraphic" in2="effect1_dropShadow_2425_10092" result="shape"/>
</filter>
</defs>
</svg>
