<svg width="1079" height="615" viewBox="0 0 1079 615" fill="none" xmlns="http://www.w3.org/2000/svg">
<path d="M2.68729e-05 30C2.68729e-05 13.4315 13.4315 4.7164e-05 30 4.7164e-05H1048.99C1065.55 4.7164e-05 1078.99 13.4315 1078.99 30V614.781H2.68729e-05V30Z" fill="white"/>
<path d="M501.95 65.3363H493.73C493.751 66.797 494.129 68.2058 494.865 69.5628C495.6 70.9095 496.677 72.1164 498.097 73.1833C499.526 74.24 501.246 75.0532 503.255 75.6229L500.956 79.3833C498.729 78.7617 496.802 77.8087 495.175 76.5242C493.549 75.2396 492.275 73.7117 491.353 71.9403C490.452 73.9499 489.152 75.6799 487.453 77.1302C485.764 78.5804 483.729 79.6474 481.346 80.3311L478.953 76.5086C481.025 75.9078 482.796 75.0325 484.267 73.8826C485.738 72.7327 486.852 71.4223 487.608 69.9513C488.375 68.4699 488.768 66.9316 488.789 65.3363H480.398V61.4827H501.95V65.3363ZM484.889 81.4965H510.885V91.6588H489.768V95.0307H512.128V98.7911H484.951V88.1937H506.006V85.2414H484.889V81.4965ZM505.975 59.4782H510.885V67.5894H516.432V71.5518H510.885V79.8805H505.975V59.4782ZM549.283 79.3677H530.466V62.1043H549.283V79.3677ZM532.796 95.2793C535.075 94.9686 537.085 94.4454 538.825 93.7099C540.576 92.9744 541.98 92.0939 543.036 91.0684C544.093 90.0428 544.756 88.9447 545.025 87.7742H534.444V83.8895H561.015V87.7742H550.464C550.733 88.9137 551.396 90.0014 552.453 91.0373C553.52 92.0628 554.929 92.9537 556.679 93.7099C558.43 94.4662 560.429 94.9996 562.677 95.3104L560.906 99.0708C557.85 98.6357 555.177 97.7914 552.888 96.538C550.609 95.2845 548.884 93.7462 547.714 91.923C546.564 93.7358 544.854 95.2586 542.586 96.4914C540.317 97.7345 537.65 98.5632 534.583 98.9775L532.796 95.2793ZM544.482 75.4675V66.0045H535.283V75.4675H544.482ZM555.545 59.4782H560.455V68.3974H566.003V72.4375H560.455V81.8695H555.545V59.4782ZM604.195 87.3235H588.485V99.2262H583.637V87.3235H568.005V83.3146H604.195V87.3235ZM569.979 77.0369C572.537 76.7262 574.817 76.115 576.816 75.2034C578.825 74.2918 580.416 73.2092 581.586 71.9558C582.767 70.692 583.44 69.3919 583.606 68.0556H571.362V64.1709H583.637V59.4938H588.485V64.1709H600.823V68.0556H588.563C588.729 69.3816 589.392 70.6764 590.552 71.9403C591.723 73.1937 593.308 74.2814 595.307 75.2034C597.306 76.115 599.58 76.7262 602.128 77.0369L600.357 80.8905C598.202 80.6212 596.203 80.1395 594.359 79.4454C592.515 78.741 590.894 77.8708 589.495 76.8349C588.097 75.799 586.963 74.6388 586.092 73.3543C585.233 74.6492 584.098 75.8146 582.689 76.8505C581.291 77.8864 579.659 78.7514 577.795 79.4454C575.94 80.1395 573.926 80.6212 571.75 80.8905L569.979 77.0369ZM640.165 82.4755H635.286V75.2189H628.263V71.3187H635.286V67.6671H628.263V63.7358H635.286V59.4782H640.165V82.4755ZM606.726 78.482C608.808 77.7258 610.574 76.6485 612.025 75.25C613.475 73.8515 614.563 72.2562 615.288 70.4641C616.023 68.6616 616.396 66.7659 616.407 64.7769V60.9233H621.317V64.7769C621.307 66.6312 621.648 68.4233 622.342 70.1533C623.047 71.8833 624.098 73.432 625.497 74.7994C626.895 76.1564 628.589 77.1975 630.578 77.9226L627.781 81.7762C625.72 80.9786 623.938 79.8235 622.436 78.3111C620.934 76.7987 619.747 75.0221 618.877 72.9813C617.997 75.1568 616.759 77.0525 615.164 78.6685C613.579 80.2742 611.678 81.5017 609.461 82.3512L606.726 78.482ZM609.041 95.0307C610.699 94.461 612.097 93.6633 613.237 92.6378C614.387 91.6019 615.246 90.4468 615.816 89.1726C616.386 87.8881 616.676 86.5725 616.686 85.2258V83.8895H621.426V85.2258C621.405 86.9869 621.804 88.6702 622.622 90.2759C623.451 91.8712 624.694 93.2075 626.351 94.2849C627.46 93.5183 628.387 92.6274 629.133 91.6122C629.879 90.5867 630.433 89.5249 630.795 88.4268C631.158 87.3287 631.344 86.2617 631.355 85.2258V83.8895H636.156V85.2258C636.156 86.645 636.436 87.9969 636.995 89.2814C637.565 90.5659 638.43 91.7106 639.59 92.7155C640.751 93.7203 642.19 94.4921 643.91 95.0307L641.408 98.6512C639.544 97.9883 637.964 97.0508 636.669 95.8387C635.374 94.6267 634.375 93.1972 633.67 91.5501C632.976 93.2179 632.018 94.6941 630.795 95.9786C629.583 97.2735 628.107 98.2731 626.367 98.9775C624.585 98.3146 623.083 97.3512 621.861 96.0874C620.638 94.8235 619.69 93.3525 619.017 91.6744C618.282 93.2593 617.277 94.6526 616.003 95.8543C614.728 97.0559 613.201 97.9883 611.419 98.6512L609.041 95.0307ZM656.635 62.3529C658.416 62.3529 660.027 62.8294 661.467 63.7825C662.907 64.7355 664.078 66.0977 664.979 67.8691C665.89 69.6302 666.46 71.702 666.688 74.0846H674.24V59.4782H679.088V99.2572H674.24V78.0314H666.735C666.569 80.559 666.035 82.7604 665.134 84.6354C664.233 86.5 663.047 87.9347 661.576 88.9396C660.115 89.9444 658.468 90.4468 656.635 90.4468C654.656 90.4468 652.89 89.8771 651.336 88.7376C649.792 87.5877 648.591 85.951 647.731 83.8273C646.871 81.6934 646.446 79.2124 646.457 76.3843C646.446 73.577 646.871 71.1167 647.731 69.0034C648.591 66.8798 649.792 65.2431 651.336 64.0932C652.89 62.933 654.656 62.3529 656.635 62.3529ZM651.134 76.3843C651.134 78.3836 651.362 80.1084 651.818 81.5587C652.273 83.009 652.916 84.1174 653.744 84.884C654.583 85.6505 655.547 86.0338 656.635 86.0338C657.733 86.0338 658.696 85.6557 659.525 84.8995C660.364 84.1329 661.011 83.0245 661.467 81.5742C661.933 80.1136 662.166 78.3836 662.166 76.3843C662.166 74.3954 661.933 72.6809 661.467 71.241C661.011 69.7907 660.364 68.6823 659.525 67.9157C658.696 67.1492 657.733 66.7659 656.635 66.7659C655.547 66.7659 654.583 67.1492 653.744 67.9157C652.916 68.6823 652.273 69.7907 651.818 71.241C651.362 72.6809 651.134 74.3954 651.134 76.3843ZM720.994 94.3626H684.68V90.3536H693.071V80.3001C691.455 79.3781 690.202 78.2179 689.311 76.8194C688.43 75.4106 687.995 73.8412 688.005 72.1112C688.005 70.0394 688.632 68.211 689.886 66.626C691.149 65.0307 692.9 63.7928 695.138 62.9123C697.375 62.0318 699.913 61.5915 702.752 61.5915C705.59 61.5915 708.133 62.0318 710.381 62.9123C712.629 63.7928 714.385 65.0307 715.649 66.626C716.923 68.211 717.56 70.0394 717.56 72.1112C717.56 73.8101 717.13 75.3536 716.27 76.7417C715.411 78.1195 714.193 79.2745 712.619 80.2068V90.3536H720.994V94.3626ZM692.791 72.1112C692.791 73.4475 693.206 74.6233 694.034 75.6385C694.863 76.6433 696.029 77.4202 697.531 77.9693C699.043 78.5079 700.783 78.7773 702.752 78.7773C704.71 78.7773 706.445 78.5028 707.957 77.9537C709.47 77.4047 710.645 76.6278 711.484 75.6229C712.334 74.6181 712.759 73.4475 712.759 72.1112C712.759 70.7541 712.339 69.5784 711.5 68.5839C710.661 67.5791 709.485 66.8125 707.973 66.2842C706.46 65.7559 704.72 65.4917 702.752 65.4917C700.773 65.4917 699.033 65.7559 697.531 66.2842C696.029 66.8125 694.863 67.5791 694.034 68.5839C693.206 69.5784 692.791 70.7541 692.791 72.1112ZM707.677 90.3536V82.087C706.134 82.4185 704.492 82.5842 702.752 82.5842C701.053 82.5842 699.437 82.4185 697.904 82.087V90.3536H707.677Z" fill="#0F1811"/>
<circle cx="405.721" cy="77.0957" r="43.748" fill="#35D047"/>
<path d="M384.715 80.2358L398.087 93.6079L427.203 64.4922" stroke="white" stroke-width="10" stroke-linecap="round" stroke-linejoin="round"/>
<path d="M406.704 209.577V213.532H379.063V202.063H383.94V209.577H406.704ZM410.791 195.427V199.382H374.58V195.427H390.225V189.45H395.059V195.427H410.791ZM395.103 177.102C395.103 182.287 400.332 186.989 408.638 188.088L406.704 191.911C400.222 190.835 395.103 187.78 392.598 183.386C390.093 187.758 385.039 190.878 378.579 191.911L376.646 188.088C384.819 186.901 390.137 182.111 390.137 177.102V175.695H395.103V177.102ZM432.852 180.925V184.836H413.384V180.925H420.767V175.739H425.601V180.925H432.852ZM423.184 186.945C428.237 186.945 431.841 190.769 431.841 196.174C431.841 201.667 428.237 205.534 423.184 205.534C418.174 205.534 414.482 201.667 414.526 196.174C414.482 190.769 418.174 186.945 423.184 186.945ZM423.184 190.988C420.591 190.988 418.789 193.054 418.833 196.174C418.789 199.382 420.591 201.403 423.184 201.359C425.732 201.403 427.534 199.382 427.534 196.174C427.534 193.054 425.732 190.988 423.184 190.988ZM447.617 174.597V214.323H442.959V194.899H439.092V212.522H434.522V175.432H439.092V190.944H442.959V174.597H447.617ZM488.618 192.614V196.306H452.319V192.614H488.618ZM484.224 198.679V207.731H461.46V210.5H485.41V213.884H456.582V204.567H479.39V202.106H456.538V198.679H484.224ZM484.136 175.476V184.44H461.768V187.033H484.839V190.373H456.934V181.276H479.258V178.859H456.802V175.476H484.136ZM538.232 205.534V209.533H501.934V205.534H517.578V197.8H505.933V177.233H510.811V183.737H529.224V177.233H534.102V197.8H522.412V205.534H538.232ZM510.811 193.845H529.224V187.648H510.811V193.845ZM572.993 185.847V189.714H545.483V176.047H550.317V185.847H572.993ZM577.08 194.328V198.195H540.781V194.328H577.08ZM573.257 209.445V213.4H545.132V201.711H550.01V209.445H573.257ZM623.662 174.641V201.14H618.784V189.362H611.226V185.363H618.784V174.641H623.662ZM610.962 177.717C610.918 188.22 604.854 195.427 593.032 199.118L590.923 195.295C600.064 192.548 604.854 187.78 605.689 181.628H592.988V177.717H610.962ZM612.852 199.558C612.808 204.48 617.73 208.962 625.64 210.236L623.662 214.104C617.51 213.049 612.764 210.148 610.391 206.018C607.952 210.148 603.184 213.071 597.031 214.148L595.098 210.28C603.052 209.094 607.974 204.48 607.974 199.558V198.02H612.852V199.558ZM662.598 174.597V214.367H657.72V194.065H650.029V190.109H657.72V174.597H662.598ZM643.789 187.209C643.745 193.23 647.349 199.646 653.633 202.414L650.996 206.149C646.448 204.216 643.152 200.239 641.416 195.471C639.658 200.524 636.384 204.765 631.836 206.809L629.199 203.029C635.396 200.217 638.911 193.449 638.911 187.209V185.144H630.386V181.232H638.955V175.432H643.833V181.232H652.139V185.144H643.789V187.209ZM701.445 199.821V213.84H674.858V199.821H701.445ZM679.736 203.645V209.885H696.611V203.645H679.736ZM701.445 174.641V197.976H696.567V187.033H689.8V183.078H696.567V174.641H701.445ZM687.603 176.53V188.264H674.639V192.702C680.813 192.658 685.361 192.46 690.635 191.648L690.986 195.603C685.142 196.569 680.088 196.701 672.925 196.701H669.805V184.572H682.813V180.485H669.717V176.53H687.603ZM284.866 242.641V265.097H279.944V242.641H284.866ZM284.866 267.074V281.84H258.499V267.074H284.866ZM263.333 270.941V277.885H280.076V270.941H263.333ZM266.584 248.002C266.584 253.056 269.968 257.802 276.165 259.779L273.792 263.515C269.199 262.086 265.903 259.164 264.124 255.341C262.3 259.45 258.96 262.724 254.192 264.306L251.775 260.439C258.235 258.373 261.531 253.231 261.531 248.002V244.135H266.584V248.002ZM323.757 242.597V282.367H318.923V242.597H323.757ZM311.541 246.068V260.966H297.874V268.964C304.136 268.92 309.541 268.612 315.715 267.558L316.155 271.557C309.387 272.743 303.455 272.963 296.335 272.963H292.864V257.099H306.575V250.023H292.82V246.068H311.541ZM365.813 260.614V264.306H329.514V260.614H365.813ZM361.418 266.679V275.731H338.655V278.5H362.605V281.884H333.777V272.567H356.584V270.106H333.733V266.679H361.418ZM361.331 243.476V252.44H338.962V255.033H362.034V258.373H334.128V249.276H356.453V246.859H333.997V243.476H361.331ZM390.291 244.486C396.399 244.486 400.881 248.354 400.925 253.803C400.881 259.384 396.399 263.163 390.291 263.163C384.138 263.163 379.612 259.384 379.656 253.803C379.612 248.354 384.138 244.486 390.291 244.486ZM390.291 248.573C386.863 248.529 384.402 250.595 384.402 253.803C384.402 257.055 386.863 259.076 390.291 259.076C393.674 259.076 396.135 257.055 396.135 253.803C396.135 250.595 393.674 248.529 390.291 248.573ZM410.461 242.597V251.21H415.999V255.253H410.461V264.13H405.584V242.597H410.461ZM389.587 265.888V270.019H405.584V265.888H410.461V281.84H384.709V265.888H389.587ZM389.587 277.885H405.584V273.798H389.587V277.885ZM449.353 242.597V252.528H454.89V256.527H449.353V266.503H444.475V242.597H449.353ZM449.353 268.349V282.323H444.475V272.26H422.898V268.349H449.353ZM424.216 245.102V250.727H433.489V245.102H438.323V264.174H419.382V245.102H424.216ZM424.216 260.307H433.489V254.55H424.216V260.307ZM488.025 242.597V258.417H494.133V262.46H488.025V282.323H483.191V242.597H488.025ZM480.115 248.705V252.616H456.692V248.705H466.096V243.168H470.974V248.705H480.115ZM468.557 255.209C474.27 255.209 478.533 259.076 478.533 264.569C478.533 270.063 474.27 273.886 468.557 273.886C462.756 273.886 458.494 270.063 458.538 264.569C458.494 259.076 462.756 255.209 468.557 255.209ZM468.557 259.208C465.437 259.208 463.196 261.317 463.196 264.569C463.196 267.821 465.437 269.887 468.557 269.843C471.589 269.887 473.831 267.821 473.875 264.569C473.831 261.317 471.589 259.208 468.557 259.208ZM527.971 253.847V257.714H500.461V244.047H505.295V253.847H527.971ZM532.058 262.328V266.195H495.759V262.328H532.058ZM528.235 277.445V281.4H500.11V269.711H504.988V277.445H528.235ZM576.487 242.597V257.67H582.595V261.669H576.487V282.367H571.609V242.597H576.487ZM565.588 246.376V250.331H551.877V268.568C558.052 268.568 562.93 268.261 568.401 267.294L568.972 271.425C562.82 272.48 557.459 272.655 550.295 272.655H547V246.376H565.588ZM616.477 246.288V251.034C616.477 256.791 616.477 262.284 614.719 270.678L609.841 270.238C610.654 266.767 611.116 263.712 611.379 260.878L587.957 262.108L587.297 258.153L611.599 257.231C611.687 255.099 611.687 253.056 611.687 251.034V250.243H588.484V246.288H616.477ZM620.476 273.271V277.27H584.265V273.271H620.476ZM657.434 242.597V282.323H652.732V262.152H648.777V280.302H644.163V243.344H648.777V258.153H652.732V242.597H657.434ZM641.877 247.299V251.254H639.021V268.349C640.208 268.261 641.328 268.151 642.405 267.997L642.668 271.557C636.472 272.831 628.298 272.963 623.289 272.963L622.717 268.92L626.409 268.876V251.254H623.508V247.299H641.877ZM630.803 268.788L634.583 268.656V251.254H630.803V268.788ZM695.315 242.641V271.996H690.437V257.45H683.318V253.495H690.437V242.641H695.315ZM696.326 277.577V281.532H669.211V269.447H674.133V277.577H696.326ZM682.043 245.673V249.628H668.86V253.935H680.857V257.758H668.86V262.328C675.144 262.306 679.099 262.174 683.713 261.361L684.109 265.273C678.967 266.195 674.529 266.371 667.014 266.371H663.982V245.673H682.043ZM733.987 242.597V282.367H729.065V242.597H733.987ZM712.585 245.497C718.562 245.497 722.913 250.946 722.957 259.516C722.913 268.173 718.562 273.578 712.585 273.578C706.565 273.578 702.214 268.173 702.214 259.516C702.214 250.946 706.565 245.497 712.585 245.497ZM712.585 249.892C709.202 249.892 706.917 253.451 706.917 259.516C706.917 265.624 709.202 269.184 712.585 269.184C715.925 269.184 718.21 265.624 718.21 259.516C718.21 253.451 715.925 249.892 712.585 249.892ZM774.109 242.597V282.323H769.407V242.597H774.109ZM765.935 243.3V280.39H761.277V261.493H757.498C757.036 269.228 753.718 274.018 748.796 273.974C743.611 274.018 740.227 268.524 740.227 259.779C740.227 251.034 743.611 245.629 748.796 245.629C753.608 245.629 756.882 250.111 757.454 257.538H761.277V243.3H765.935ZM748.796 250.243C746.292 250.199 744.709 253.583 744.753 259.779C744.709 265.976 746.292 269.359 748.796 269.315C751.433 269.359 753.015 265.976 753.015 259.779C753.015 253.583 751.433 250.199 748.796 250.243ZM815.022 273.49V277.489H778.723V273.49H787.117V263.427C783.953 261.625 782.041 258.791 782.063 255.253C782.019 248.925 788.259 244.75 796.785 244.75C805.354 244.75 811.594 248.925 811.594 255.253C811.594 258.725 809.749 261.515 806.672 263.339V273.49H815.022ZM796.785 248.617C790.852 248.617 786.809 251.122 786.853 255.253C786.809 259.34 790.852 261.889 796.785 261.889C802.717 261.889 806.804 259.34 806.804 255.253C806.804 251.122 802.717 248.617 796.785 248.617ZM791.951 273.49H801.707V265.185C800.19 265.536 798.543 265.712 796.785 265.712C795.071 265.712 793.445 265.536 791.951 265.229V273.49ZM822.449 278.764C820.559 278.764 819.021 277.226 819.021 275.336C819.021 273.49 820.559 271.952 822.449 271.952C824.251 271.952 825.833 273.49 825.833 275.336C825.833 277.226 824.251 278.764 822.449 278.764Z" fill="#0F1811"/>
<path d="M1002.2 64.4639L1036.57 30.0958" stroke="#797979" stroke-width="5" stroke-linecap="round"/>
<path d="M1036.57 64.4639L1002.2 30.0958" stroke="#797979" stroke-width="5" stroke-linecap="round"/>
</svg>
